<svg xmlns="http://www.w3.org/2000/svg" viewBox="0 0 1600 900" data-asset-id="fh_nursery"><g id="background" stroke="#514039" stroke-width="5" stroke-linejoin="round" stroke-linecap="round"><rect x="0" y="0" width="1600" height="900" rx="0" fill="#e9e2ee"/><rect x="0" y="650" width="1600" height="250" rx="0" fill="#d5b491"/><rect x="0" y="630" width="1600" height="30" rx="0" fill="#fff8eb"/><path d="M0 665 L-120 900" fill="none"/><path d="M200 665 L80 900" fill="none"/><path d="M400 665 L280 900" fill="none"/><path d="M600 665 L480 900" fill="none"/><path d="M800 665 L680 900" fill="none"/><path d="M1000 665 L880 900" fill="none"/><path d="M1200 665 L1080 900" fill="none"/><path d="M1400 665 L1280 900" fill="none"/><path d="M1600 665 L1480 900" fill="none"/><rect x="1040" y="125" width="380" height="410" rx="8" fill="#c9a576"/><rect x="1060" y="145" width="340" height="370" rx="2" fill="#dcecf0"/><ellipse cx="1290" cy="240" rx="55" ry="55" fill="#efd68b"/><path d="M1060 440 Q1150 340 1230 430 Q1300 330 1400 410 L1400 515 L1060 515 Z" fill="#92b6a0"/><path d="M1230 145 L1230 515" fill="none"/><path d="M1060 325 L1400 325" fill="none"/><path d="M995 115 L1110 115 L1080 555 L990 555 Z" fill="#92b6a0"/><path d="M1360 115 L1465 115 L1475 555 L1400 555 Z" fill="#92b6a0"/><rect x="165" y="160" width="460" height="18" rx="3" fill="#c9a576"/><ellipse cx="230" cy="250" rx="45" ry="30" fill="#fff8eb"/><ellipse cx="265" cy="230" rx="45" ry="35" fill="#fff8eb"/><ellipse cx="450" cy="320" rx="45" ry="30" fill="#fff8eb"/><ellipse cx="485" cy="300" rx="45" ry="35" fill="#fff8eb"/><ellipse cx="680" cy="200" rx="45" ry="30" fill="#fff8eb"/><ellipse cx="715" cy="180" rx="45" ry="35" fill="#fff8eb"/></g></svg>
