<svg xmlns="http://www.w3.org/2000/svg" viewBox="0 0 1000 1000" data-asset-id="prop_tea_set">
  <g id="prop" stroke="#2d261e" stroke-width="16" stroke-linejoin="round" stroke-linecap="round">
    <!-- Teapot -->
    <path d="M360 400 C360 240 640 240 640 400 C740 560 720 840 500 880 C280 840 260 560 360 400 Z" fill="#b56576"/>
    <circle cx="500" cy="280" r="40" fill="#e9c46a"/>
    <path d="M630 520 C740 520 740 720 630 760" fill="none" stroke-width="18"/>
    <path d="M320 560 L200 440" fill="none" stroke-width="24"/>
    <path d="M310 550 Q230 520 220 620 Q230 700 315 660" fill="none" stroke-width="18"/>
    <ellipse cx="500" cy="410" rx="110" ry="24" fill="#8c4b60" stroke="none"/>
    <path d="M440 180 Q420 130 450 90 M500 180 Q480 125 510 80 M560 180 Q540 130 570 95" fill="none" stroke="#fffdf7" stroke-width="10" opacity="0.7"/>
    <!-- Teacup -->
    <path d="M740 640 C740 840 920 840 920 640 Z" fill="#ffffff"/>
    <path d="M895 690 Q980 680 980 750 Q980 815 900 790" fill="none" stroke-width="16"/>
    <line x1="720" y1="840" x2="940" y2="840" stroke-width="18"/>
  </g>
</svg>
